<?xml version="1.0" standalone="no"?>
<svg width="567.429" height="412.106" viewBox="0 0 567.429 412.106" xmlns="http://www.w3.org/2000/svg" shape-rendering="crispEdges">
<title>
ratio_eta_aa_full_bkgexppol1.svg
</title>
<desc>
Creator: ROOT Version 6.12/04
CreationDate: Fri Mar 23 04:43:29 2018</desc>
<defs>
</defs>
<rect x="0.5" y="0" width="566.929" height="411.606" fill="white"/>
<rect x="71.3661" y="41.1606" width="425.197" height="329.285" fill="white"/>
<rect x="71.3661" y="41.1606" width="425.197" height="329.285" fill="none" stroke="black"/>
<rect x="71.3661" y="41.1606" width="425.197" height="329.285" fill="white"/>
<rect x="71.3661" y="41.1606" width="425.197" height="329.285" fill="none" stroke="black"/>
<path d="M71.3661,370.445h 425.197" fill="none" stroke="black"/>
<path d="M71.3661,41.1606v 329.285" fill="none" stroke="black" stroke-dasharray=" 1, 2"/>
<path d="M142.232,41.1606v 329.285" fill="none" stroke="black" stroke-dasharray=" 1, 2"/>
<path d="M213.098,41.1606v 329.285" fill="none" stroke="black" stroke-dasharray=" 1, 2"/>
<path d="M283.965,41.1606v 329.285" fill="none" stroke="black" stroke-dasharray=" 1, 2"/>
<path d="M354.831,41.1606v 329.285" fill="none" stroke="black" stroke-dasharray=" 1, 2"/>
<path d="M425.697,41.1606v 329.285" fill="none" stroke="black" stroke-dasharray=" 1, 2"/>
<path d="M496.563,41.1606v 329.285" fill="none" stroke="black" stroke-dasharray=" 1, 2"/>
<path d="M71.3661,41.1606v 329.285" fill="none" stroke="black" stroke-dasharray=" 1, 2"/>
<path d="M71.3661,41.1606h 425.197" fill="none" stroke="black"/>
<path d="M71.3661,370.445v -329.285" fill="none" stroke="black"/>
<path d="M496.563,370.445h -425.197" fill="none" stroke="black" stroke-dasharray=" 1, 2"/>
<path d="M496.563,323.965h -425.197" fill="none" stroke="black" stroke-dasharray=" 1, 2"/>
<path d="M496.563,277.485h -425.197" fill="none" stroke="black" stroke-dasharray=" 1, 2"/>
<path d="M496.563,231.005h -425.197" fill="none" stroke="black" stroke-dasharray=" 1, 2"/>
<path d="M496.563,184.525h -425.197" fill="none" stroke="black" stroke-dasharray=" 1, 2"/>
<path d="M496.563,138.045h -425.197" fill="none" stroke="black" stroke-dasharray=" 1, 2"/>
<path d="M496.563,91.5652h -425.197" fill="none" stroke="black" stroke-dasharray=" 1, 2"/>
<path d="M496.563,45.0851h -425.197" fill="none" stroke="black" stroke-dasharray=" 1, 2"/>
<path d="M496.563,45.0851h -425.197" fill="none" stroke="black" stroke-dasharray=" 1, 2"/>
<path d="M496.563,370.445v -329.285" fill="none" stroke="black"/>
<path d="M71.3661,370.445h 425.197" fill="none" stroke="black" stroke-width="2"/>
<path d="M71.3661,370.445h 425.197" fill="none" stroke="black"/>
<path d="M71.3661,361.184v 9.26114" fill="none" stroke="black"/>
<path d="M85.5394,365.815v 4.63057" fill="none" stroke="black"/>
<path d="M99.7126,365.815v 4.63057" fill="none" stroke="black"/>
<path d="M113.886,365.815v 4.63057" fill="none" stroke="black"/>
<path d="M128.059,365.815v 4.63057" fill="none" stroke="black"/>
<path d="M142.232,361.184v 9.26114" fill="none" stroke="black"/>
<path d="M156.406,365.815v 4.63057" fill="none" stroke="black"/>
<path d="M170.579,365.815v 4.63057" fill="none" stroke="black"/>
<path d="M184.752,365.815v 4.63057" fill="none" stroke="black"/>
<path d="M198.925,365.815v 4.63057" fill="none" stroke="black"/>
<path d="M213.098,361.184v 9.26114" fill="none" stroke="black"/>
<path d="M227.272,365.815v 4.63057" fill="none" stroke="black"/>
<path d="M241.445,365.815v 4.63057" fill="none" stroke="black"/>
<path d="M255.618,365.815v 4.63057" fill="none" stroke="black"/>
<path d="M269.791,365.815v 4.63057" fill="none" stroke="black"/>
<path d="M283.965,361.184v 9.26114" fill="none" stroke="black"/>
<path d="M298.138,365.815v 4.63057" fill="none" stroke="black"/>
<path d="M312.311,365.815v 4.63057" fill="none" stroke="black"/>
<path d="M326.484,365.815v 4.63057" fill="none" stroke="black"/>
<path d="M340.657,365.815v 4.63057" fill="none" stroke="black"/>
<path d="M354.831,361.184v 9.26114" fill="none" stroke="black"/>
<path d="M369.004,365.815v 4.63057" fill="none" stroke="black"/>
<path d="M383.177,365.815v 4.63057" fill="none" stroke="black"/>
<path d="M397.35,365.815v 4.63057" fill="none" stroke="black"/>
<path d="M411.524,365.815v 4.63057" fill="none" stroke="black"/>
<path d="M425.697,361.184v 9.26114" fill="none" stroke="black"/>
<path d="M439.87,365.815v 4.63057" fill="none" stroke="black"/>
<path d="M454.043,365.815v 4.63057" fill="none" stroke="black"/>
<path d="M468.217,365.815v 4.63057" fill="none" stroke="black"/>
<path d="M482.39,365.815v 4.63057" fill="none" stroke="black"/>
<path d="M496.563,361.184v 9.26114" fill="none" stroke="black"/>
<path d="M71.3661,361.184v 9.26114" fill="none" stroke="black"/>
<text xml:space="preserve" x="63.7387" y="382.206" fill="black" font-size="11.8286" font-family="Times" font-weight="bold">0.4</text>
<text xml:space="preserve" x="134.743" y="382.206" fill="black" font-size="11.8286" font-family="Times" font-weight="bold">0.5</text>
<text xml:space="preserve" x="205.748" y="382.206" fill="black" font-size="11.8286" font-family="Times" font-weight="bold">0.6</text>
<text xml:space="preserve" x="276.753" y="382.206" fill="black" font-size="11.8286" font-family="Times" font-weight="bold">0.7</text>
<text xml:space="preserve" x="347.203" y="382.206" fill="black" font-size="11.8286" font-family="Times" font-weight="bold">0.8</text>
<text xml:space="preserve" x="418.208" y="382.206" fill="black" font-size="11.8286" font-family="Times" font-weight="bold">0.9</text>
<text xml:space="preserve" x="493.651" y="382.206" fill="black" font-size="11.8286" font-family="Times" font-weight="bold">1</text>
<text xml:space="preserve" x="487.549" y="398.293" fill="black" font-size="13.7167" font-family="Times" font-weight="bold">Z</text>
<path d="M71.3661,41.1606h 425.197" fill="none" stroke="black"/>
<path d="M71.3661,50.4217v -9.26114" fill="none" stroke="black"/>
<path d="M85.5394,45.7912v -4.63057" fill="none" stroke="black"/>
<path d="M99.7126,45.7912v -4.63057" fill="none" stroke="black"/>
<path d="M113.886,45.7912v -4.63057" fill="none" stroke="black"/>
<path d="M128.059,45.7912v -4.63057" fill="none" stroke="black"/>
<path d="M142.232,50.4217v -9.26114" fill="none" stroke="black"/>
<path d="M156.406,45.7912v -4.63057" fill="none" stroke="black"/>
<path d="M170.579,45.7912v -4.63057" fill="none" stroke="black"/>
<path d="M184.752,45.7912v -4.63057" fill="none" stroke="black"/>
<path d="M198.925,45.7912v -4.63057" fill="none" stroke="black"/>
<path d="M213.098,50.4217v -9.26114" fill="none" stroke="black"/>
<path d="M227.272,45.7912v -4.63057" fill="none" stroke="black"/>
<path d="M241.445,45.7912v -4.63057" fill="none" stroke="black"/>
<path d="M255.618,45.7912v -4.63057" fill="none" stroke="black"/>
<path d="M269.791,45.7912v -4.63057" fill="none" stroke="black"/>
<path d="M283.965,50.4217v -9.26114" fill="none" stroke="black"/>
<path d="M298.138,45.7912v -4.63057" fill="none" stroke="black"/>
<path d="M312.311,45.7912v -4.63057" fill="none" stroke="black"/>
<path d="M326.484,45.7912v -4.63057" fill="none" stroke="black"/>
<path d="M340.657,45.7912v -4.63057" fill="none" stroke="black"/>
<path d="M354.831,50.4217v -9.26114" fill="none" stroke="black"/>
<path d="M369.004,45.7912v -4.63057" fill="none" stroke="black"/>
<path d="M383.177,45.7912v -4.63057" fill="none" stroke="black"/>
<path d="M397.35,45.7912v -4.63057" fill="none" stroke="black"/>
<path d="M411.524,45.7912v -4.63057" fill="none" stroke="black"/>
<path d="M425.697,50.4217v -9.26114" fill="none" stroke="black"/>
<path d="M439.87,45.7912v -4.63057" fill="none" stroke="black"/>
<path d="M454.043,45.7912v -4.63057" fill="none" stroke="black"/>
<path d="M468.217,45.7912v -4.63057" fill="none" stroke="black"/>
<path d="M482.39,45.7912v -4.63057" fill="none" stroke="black"/>
<path d="M496.563,50.4217v -9.26114" fill="none" stroke="black"/>
<path d="M71.3661,50.4217v -9.26114" fill="none" stroke="black"/>
<path d="M71.3661,370.445v -329.285" fill="none" stroke="black"/>
<path d="M84.9724,370.445h -13.6063" fill="none" stroke="black"/>
<path d="M78.1693,358.825h -6.80315" fill="none" stroke="black"/>
<path d="M78.1693,347.205h -6.80315" fill="none" stroke="black"/>
<path d="M78.1693,335.585h -6.80315" fill="none" stroke="black"/>
<path d="M84.9724,323.965h -13.6063" fill="none" stroke="black"/>
<path d="M78.1693,312.345h -6.80315" fill="none" stroke="black"/>
<path d="M78.1693,300.725h -6.80315" fill="none" stroke="black"/>
<path d="M78.1693,289.105h -6.80315" fill="none" stroke="black"/>
<path d="M84.9724,277.485h -13.6063" fill="none" stroke="black"/>
<path d="M78.1693,265.865h -6.80315" fill="none" stroke="black"/>
<path d="M78.1693,254.245h -6.80315" fill="none" stroke="black"/>
<path d="M78.1693,242.625h -6.80315" fill="none" stroke="black"/>
<path d="M84.9724,231.005h -13.6063" fill="none" stroke="black"/>
<path d="M78.1693,219.385h -6.80315" fill="none" stroke="black"/>
<path d="M78.1693,207.765h -6.80315" fill="none" stroke="black"/>
<path d="M78.1693,196.145h -6.80315" fill="none" stroke="black"/>
<path d="M84.9724,184.525h -13.6063" fill="none" stroke="black"/>
<path d="M78.1693,172.905h -6.80315" fill="none" stroke="black"/>
<path d="M78.1693,161.285h -6.80315" fill="none" stroke="black"/>
<path d="M78.1693,149.665h -6.80315" fill="none" stroke="black"/>
<path d="M84.9724,138.045h -13.6063" fill="none" stroke="black"/>
<path d="M78.1693,126.425h -6.80315" fill="none" stroke="black"/>
<path d="M78.1693,114.805h -6.80315" fill="none" stroke="black"/>
<path d="M78.1693,103.185h -6.80315" fill="none" stroke="black"/>
<path d="M84.9724,91.5652h -13.6063" fill="none" stroke="black"/>
<path d="M78.1693,79.9452h -6.80315" fill="none" stroke="black"/>
<path d="M78.1693,68.3252h -6.80315" fill="none" stroke="black"/>
<path d="M78.1693,56.7052h -6.80315" fill="none" stroke="black"/>
<path d="M84.9724,45.0851h -13.6063" fill="none" stroke="black"/>
<path d="M84.9724,45.0851h -13.6063" fill="none" stroke="black"/>
<text xml:space="preserve" x="62.6292" y="374.439" fill="black" font-size="11.8286" font-family="Times" font-weight="bold">0</text>
<text xml:space="preserve" x="53.7536" y="328.397" fill="black" font-size="11.8286" font-family="Times" font-weight="bold">0.2</text>
<text xml:space="preserve" x="53.7536" y="281.8" fill="black" font-size="11.8286" font-family="Times" font-weight="bold">0.4</text>
<text xml:space="preserve" x="53.7536" y="235.203" fill="black" font-size="11.8286" font-family="Times" font-weight="bold">0.6</text>
<text xml:space="preserve" x="53.7536" y="188.607" fill="black" font-size="11.8286" font-family="Times" font-weight="bold">0.8</text>
<text xml:space="preserve" x="62.6292" y="142.01" fill="black" font-size="11.8286" font-family="Times" font-weight="bold">1</text>
<text xml:space="preserve" x="53.7536" y="95.9675" fill="black" font-size="11.8286" font-family="Times" font-weight="bold">1.2</text>
<text xml:space="preserve" x="53.7536" y="49.3705" fill="black" font-size="11.8286" font-family="Times" font-weight="bold">1.4</text>
<g transform="rotate(-90,44.878,47.7064)">
<text xml:space="preserve" x="44.878" y="47.7064" fill="black" font-size="9.31114" font-family="Times" font-weight="bold">D</text>
</g>
<g transform="rotate(-90,35.4477,47.7064)">
<text xml:space="preserve" x="35.4477" y="47.7064" fill="black" font-size="9.31114" font-family="Times" font-weight="bold">A</text>
</g>
<g transform="rotate(-90,40.9949,57.6914)">
<text xml:space="preserve" x="40.9949" y="57.6914" fill="black" font-size="13.7167" font-family="Times" font-weight="bold">R</text>
</g>
<path d="M496.563,370.445v -329.285" fill="none" stroke="black"/>
<path d="M482.957,370.445h 13.6063" fill="none" stroke="black"/>
<path d="M489.76,358.825h 6.80315" fill="none" stroke="black"/>
<path d="M489.76,347.205h 6.80315" fill="none" stroke="black"/>
<path d="M489.76,335.585h 6.80315" fill="none" stroke="black"/>
<path d="M482.957,323.965h 13.6063" fill="none" stroke="black"/>
<path d="M489.76,312.345h 6.80315" fill="none" stroke="black"/>
<path d="M489.76,300.725h 6.80315" fill="none" stroke="black"/>
<path d="M489.76,289.105h 6.80315" fill="none" stroke="black"/>
<path d="M482.957,277.485h 13.6063" fill="none" stroke="black"/>
<path d="M489.76,265.865h 6.80315" fill="none" stroke="black"/>
<path d="M489.76,254.245h 6.80315" fill="none" stroke="black"/>
<path d="M489.76,242.625h 6.80315" fill="none" stroke="black"/>
<path d="M482.957,231.005h 13.6063" fill="none" stroke="black"/>
<path d="M489.76,219.385h 6.80315" fill="none" stroke="black"/>
<path d="M489.76,207.765h 6.80315" fill="none" stroke="black"/>
<path d="M489.76,196.145h 6.80315" fill="none" stroke="black"/>
<path d="M482.957,184.525h 13.6063" fill="none" stroke="black"/>
<path d="M489.76,172.905h 6.80315" fill="none" stroke="black"/>
<path d="M489.76,161.285h 6.80315" fill="none" stroke="black"/>
<path d="M489.76,149.665h 6.80315" fill="none" stroke="black"/>
<path d="M482.957,138.045h 13.6063" fill="none" stroke="black"/>
<path d="M489.76,126.425h 6.80315" fill="none" stroke="black"/>
<path d="M489.76,114.805h 6.80315" fill="none" stroke="black"/>
<path d="M489.76,103.185h 6.80315" fill="none" stroke="black"/>
<path d="M482.957,91.5652h 13.6063" fill="none" stroke="black"/>
<path d="M489.76,79.9452h 6.80315" fill="none" stroke="black"/>
<path d="M489.76,68.3252h 6.80315" fill="none" stroke="black"/>
<path d="M489.76,56.7052h 6.80315" fill="none" stroke="black"/>
<path d="M482.957,45.0851h 13.6063" fill="none" stroke="black"/>
<path d="M482.957,45.0851h 13.6063" fill="none" stroke="black"/>
<path d="M71.3661,153.318h 33.2142" fill="none" stroke="#0000ff" stroke-width="2"/>
<path d="M109.018,153.318h 33.2142" fill="none" stroke="#0000ff" stroke-width="2"/>
<g stroke="#0000ff" stroke-width="2" fill="#0000ff">
<circle cx="106.799" cy="153.318" r="2.2189"/>
</g>
<path d="M142.232,247.811h 33.2142" fill="none" stroke="#0000ff" stroke-width="2"/>
<path d="M179.884,247.811h 33.2142" fill="none" stroke="#0000ff" stroke-width="2"/>
<g stroke="#0000ff" stroke-width="2" fill="#0000ff">
<circle cx="177.665" cy="247.811" r="2.2189"/>
</g>
<path d="M213.098,261.646h 33.2142" fill="none" stroke="#0000ff" stroke-width="2"/>
<path d="M250.75,261.646h 33.2142" fill="none" stroke="#0000ff" stroke-width="2"/>
<g stroke="#0000ff" stroke-width="2" fill="#0000ff">
<circle cx="248.531" cy="261.646" r="2.2189"/>
</g>
<path d="M283.965,179.787h 33.2142" fill="none" stroke="#0000ff" stroke-width="2"/>
<path d="M321.617,179.787h 33.2142" fill="none" stroke="#0000ff" stroke-width="2"/>
<g stroke="#0000ff" stroke-width="2" fill="#0000ff">
<circle cx="319.398" cy="179.787" r="2.2189"/>
</g>
<path d="M354.831,237.272h 33.2142" fill="none" stroke="#0000ff" stroke-width="2"/>
<path d="M392.483,237.272h 33.2142" fill="none" stroke="#0000ff" stroke-width="2"/>
<g stroke="#0000ff" stroke-width="2" fill="#0000ff">
<circle cx="390.264" cy="237.272" r="2.2189"/>
</g>
<path d="M425.697,220.378h 33.2142" fill="none" stroke="#0000ff" stroke-width="2"/>
<path d="M463.349,220.378h 33.2142" fill="none" stroke="#0000ff" stroke-width="2"/>
<g stroke="#0000ff" stroke-width="2" fill="#0000ff">
<circle cx="461.13" cy="220.378" r="2.2189"/>
</g>
<path d="M71.3661,107.914h 33.2142" fill="none" stroke="#ff0000" stroke-width="2"/>
<path d="M109.018,107.914h 33.2142" fill="none" stroke="#ff0000" stroke-width="2"/>
<g stroke="#ff0000" stroke-width="2" fill="#ff0000">
<circle cx="106.799" cy="107.914" r="2.2189"/>
</g>
<path d="M142.232,169.97h 33.2142" fill="none" stroke="#ff0000" stroke-width="2"/>
<path d="M179.884,169.97h 33.2142" fill="none" stroke="#ff0000" stroke-width="2"/>
<g stroke="#ff0000" stroke-width="2" fill="#ff0000">
<circle cx="177.665" cy="169.97" r="2.2189"/>
</g>
<path d="M213.098,190.982h 33.2142" fill="none" stroke="#ff0000" stroke-width="2"/>
<path d="M250.75,190.982h 33.2142" fill="none" stroke="#ff0000" stroke-width="2"/>
<g stroke="#ff0000" stroke-width="2" fill="#ff0000">
<circle cx="248.531" cy="190.982" r="2.2189"/>
</g>
<path d="M283.965,56.8408h 33.2142" fill="none" stroke="#ff0000" stroke-width="2"/>
<path d="M321.617,56.8408h 33.2142" fill="none" stroke="#ff0000" stroke-width="2"/>
<g stroke="#ff0000" stroke-width="2" fill="#ff0000">
<circle cx="319.398" cy="56.8408" r="2.2189"/>
</g>
<path d="M354.831,159.741h 33.2142" fill="none" stroke="#ff0000" stroke-width="2"/>
<path d="M392.483,159.741h 33.2142" fill="none" stroke="#ff0000" stroke-width="2"/>
<g stroke="#ff0000" stroke-width="2" fill="#ff0000">
<circle cx="390.264" cy="159.741" r="2.2189"/>
</g>
<path d="M425.697,224.509h 33.2142" fill="none" stroke="#ff0000" stroke-width="2"/>
<path d="M463.349,224.509h 33.2142" fill="none" stroke="#ff0000" stroke-width="2"/>
<g stroke="#ff0000" stroke-width="2" fill="#ff0000">
<circle cx="461.13" cy="224.509" r="2.2189"/>
</g>
<path d="M71.3661,236.263h 33.2142" fill="none" stroke="black" stroke-width="2"/>
<path d="M109.018,236.263h 33.2142" fill="none" stroke="black" stroke-width="2"/>
<g stroke="black" stroke-width="2" fill="black">
<circle cx="106.799" cy="236.263" r="2.2189"/>
</g>
<path d="M142.232,250.809h 33.2142" fill="none" stroke="black" stroke-width="2"/>
<path d="M179.884,250.809h 33.2142" fill="none" stroke="black" stroke-width="2"/>
<g stroke="black" stroke-width="2" fill="black">
<circle cx="177.665" cy="250.809" r="2.2189"/>
</g>
<path d="M213.098,275.151h 33.2142" fill="none" stroke="black" stroke-width="2"/>
<path d="M250.75,275.151h 33.2142" fill="none" stroke="black" stroke-width="2"/>
<g stroke="black" stroke-width="2" fill="black">
<circle cx="248.531" cy="275.151" r="2.2189"/>
</g>
<path d="M283.965,196.835h 33.2142" fill="none" stroke="black" stroke-width="2"/>
<path d="M321.617,196.835h 33.2142" fill="none" stroke="black" stroke-width="2"/>
<g stroke="black" stroke-width="2" fill="black">
<circle cx="319.398" cy="196.835" r="2.2189"/>
</g>
<path d="M354.831,270.773h 33.2142" fill="none" stroke="black" stroke-width="2"/>
<path d="M392.483,270.773h 33.2142" fill="none" stroke="black" stroke-width="2"/>
<g stroke="black" stroke-width="2" fill="black">
<circle cx="390.264" cy="270.773" r="2.2189"/>
</g>
<path d="M425.697,267.97h 33.2142" fill="none" stroke="black" stroke-width="2"/>
<path d="M463.349,267.97h 33.2142" fill="none" stroke="black" stroke-width="2"/>
<g stroke="black" stroke-width="2" fill="black">
<circle cx="461.13" cy="267.97" r="2.2189"/>
</g>
<path d="M71.3661,207.77h 33.2142" fill="none" stroke="#0000ff" stroke-width="2"/>
<path d="M109.018,207.77h 33.2142" fill="none" stroke="#0000ff" stroke-width="2"/>
<g stroke="#0000ff" stroke-width="2" fill="none">
<polygon points=" 104.58, 205.551 109.018, 205.551 109.018, 209.989 104.58, 209.989 104.58, 205.551 109.018, 209.989 104.58, 209.989 109.018, 205.551"/>
</g>
<path d="M177.665,253.95v -6.04912" fill="none" stroke="#0000ff" stroke-width="2"/>
<path d="M177.665,243.463v -6.04912" fill="none" stroke="#0000ff" stroke-width="2"/>
<path d="M142.232,245.682h 33.2142" fill="none" stroke="#0000ff" stroke-width="2"/>
<path d="M179.884,245.682h 33.2142" fill="none" stroke="#0000ff" stroke-width="2"/>
<g stroke="#0000ff" stroke-width="2" fill="none">
<polygon points=" 175.446, 243.463 179.884, 243.463 179.884, 247.901 175.446, 247.901 175.446, 243.463 179.884, 247.901 175.446, 247.901 179.884, 243.463"/>
</g>
<path d="M213.098,243.026h 33.2142" fill="none" stroke="#0000ff" stroke-width="2"/>
<path d="M250.75,243.026h 33.2142" fill="none" stroke="#0000ff" stroke-width="2"/>
<g stroke="#0000ff" stroke-width="2" fill="none">
<polygon points=" 246.313, 240.807 250.75, 240.807 250.75, 245.245 246.313, 245.245 246.313, 240.807 250.75, 245.245 246.313, 245.245 250.75, 240.807"/>
</g>
<path d="M283.965,257.178h 33.2142" fill="none" stroke="#0000ff" stroke-width="2"/>
<path d="M321.617,257.178h 33.2142" fill="none" stroke="#0000ff" stroke-width="2"/>
<g stroke="#0000ff" stroke-width="2" fill="none">
<polygon points=" 317.179, 254.959 321.617, 254.959 321.617, 259.396 317.179, 259.396 317.179, 254.959 321.617, 259.396 317.179, 259.396 321.617, 254.959"/>
</g>
<path d="M354.831,235.502h 33.2142" fill="none" stroke="#0000ff" stroke-width="2"/>
<path d="M392.483,235.502h 33.2142" fill="none" stroke="#0000ff" stroke-width="2"/>
<g stroke="#0000ff" stroke-width="2" fill="none">
<polygon points=" 388.045, 233.283 392.483, 233.283 392.483, 237.72 388.045, 237.72 388.045, 233.283 392.483, 237.72 388.045, 237.72 392.483, 233.283"/>
</g>
<path d="M461.13,226.249v -1.77784" fill="none" stroke="#0000ff" stroke-width="2"/>
<path d="M461.13,220.034v -1.77784" fill="none" stroke="#0000ff" stroke-width="2"/>
<path d="M425.697,222.253h 33.2142" fill="none" stroke="#0000ff" stroke-width="2"/>
<path d="M463.349,222.253h 33.2142" fill="none" stroke="#0000ff" stroke-width="2"/>
<g stroke="#0000ff" stroke-width="2" fill="none">
<polygon points=" 458.911, 220.034 463.349, 220.034 463.349, 224.472 458.911, 224.472 458.911, 220.034 463.349, 224.472 458.911, 224.472 463.349, 220.034"/>
</g>
<path d="M71.3661,173.752h 33.2142" fill="none" stroke="#ff0000" stroke-width="2"/>
<path d="M109.018,173.752h 33.2142" fill="none" stroke="#ff0000" stroke-width="2"/>
<g stroke="#ff0000" stroke-width="2" fill="none">
<polygon points=" 104.58, 171.533 109.018, 171.533 109.018, 175.971 104.58, 175.971 104.58, 171.533 109.018, 175.971 104.58, 175.971 109.018, 171.533"/>
</g>
<path d="M177.665,168.985v -0.277508" fill="none" stroke="#ff0000" stroke-width="2"/>
<path d="M177.665,164.27v -0.277508" fill="none" stroke="#ff0000" stroke-width="2"/>
<path d="M142.232,166.489h 33.2142" fill="none" stroke="#ff0000" stroke-width="2"/>
<path d="M179.884,166.489h 33.2142" fill="none" stroke="#ff0000" stroke-width="2"/>
<g stroke="#ff0000" stroke-width="2" fill="none">
<polygon points=" 175.446, 164.27 179.884, 164.27 179.884, 168.708 175.446, 168.708 175.446, 164.27 179.884, 168.708 175.446, 168.708 179.884, 164.27"/>
</g>
<path d="M248.531,164.356v -1.86873" fill="none" stroke="#ff0000" stroke-width="2"/>
<path d="M248.531,158.049v -1.86873" fill="none" stroke="#ff0000" stroke-width="2"/>
<path d="M213.098,160.268h 33.2142" fill="none" stroke="#ff0000" stroke-width="2"/>
<path d="M250.75,160.268h 33.2142" fill="none" stroke="#ff0000" stroke-width="2"/>
<g stroke="#ff0000" stroke-width="2" fill="none">
<polygon points=" 246.313, 158.049 250.75, 158.049 250.75, 162.487 246.313, 162.487 246.313, 158.049 250.75, 162.487 246.313, 162.487 250.75, 158.049"/>
</g>
<path d="M319.398,191.128v -4.77162" fill="none" stroke="#ff0000" stroke-width="2"/>
<path d="M319.398,181.918v -4.77162" fill="none" stroke="#ff0000" stroke-width="2"/>
<path d="M283.965,184.137h 33.2142" fill="none" stroke="#ff0000" stroke-width="2"/>
<path d="M321.617,184.137h 33.2142" fill="none" stroke="#ff0000" stroke-width="2"/>
<g stroke="#ff0000" stroke-width="2" fill="none">
<polygon points=" 317.179, 181.918 321.617, 181.918 321.617, 186.356 317.179, 186.356 317.179, 181.918 321.617, 186.356 317.179, 186.356 321.617, 181.918"/>
</g>
<path d="M390.264,160.384v -1.225" fill="none" stroke="#ff0000" stroke-width="2"/>
<path d="M390.264,154.721v -1.225" fill="none" stroke="#ff0000" stroke-width="2"/>
<path d="M354.831,156.94h 33.2142" fill="none" stroke="#ff0000" stroke-width="2"/>
<path d="M392.483,156.94h 33.2142" fill="none" stroke="#ff0000" stroke-width="2"/>
<g stroke="#ff0000" stroke-width="2" fill="none">
<polygon points=" 388.045, 154.721 392.483, 154.721 392.483, 159.159 388.045, 159.159 388.045, 154.721 392.483, 159.159 388.045, 159.159 392.483, 154.721"/>
</g>
<path d="M461.13,232.91v -4.35942" fill="none" stroke="#ff0000" stroke-width="2"/>
<path d="M461.13,224.113v -4.35942" fill="none" stroke="#ff0000" stroke-width="2"/>
<path d="M425.697,226.332h 33.2142" fill="none" stroke="#ff0000" stroke-width="2"/>
<path d="M463.349,226.332h 33.2142" fill="none" stroke="#ff0000" stroke-width="2"/>
<g stroke="#ff0000" stroke-width="2" fill="none">
<polygon points=" 458.911, 224.113 463.349, 224.113 463.349, 228.551 458.911, 228.551 458.911, 224.113 463.349, 228.551 458.911, 228.551 463.349, 224.113"/>
</g>
<path d="M71.3661,269.914h 33.2142" fill="none" stroke="black" stroke-width="2"/>
<path d="M109.018,269.914h 33.2142" fill="none" stroke="black" stroke-width="2"/>
<g stroke="black" stroke-width="2" fill="none">
<polygon points=" 104.58, 267.695 109.018, 267.695 109.018, 272.133 104.58, 272.133 104.58, 267.695 109.018, 272.133 104.58, 272.133 109.018, 267.695"/>
</g>
<path d="M142.232,248.732h 33.2142" fill="none" stroke="black" stroke-width="2"/>
<path d="M179.884,248.732h 33.2142" fill="none" stroke="black" stroke-width="2"/>
<g stroke="black" stroke-width="2" fill="none">
<polygon points=" 175.446, 246.513 179.884, 246.513 179.884, 250.95 175.446, 250.95 175.446, 246.513 179.884, 250.95 175.446, 250.95 179.884, 246.513"/>
</g>
<path d="M213.098,258.842h 33.2142" fill="none" stroke="black" stroke-width="2"/>
<path d="M250.75,258.842h 33.2142" fill="none" stroke="black" stroke-width="2"/>
<g stroke="black" stroke-width="2" fill="none">
<polygon points=" 246.313, 256.623 250.75, 256.623 250.75, 261.061 246.313, 261.061 246.313, 256.623 250.75, 261.061 246.313, 261.061 250.75, 256.623"/>
</g>
<path d="M283.965,267.306h 33.2142" fill="none" stroke="black" stroke-width="2"/>
<path d="M321.617,267.306h 33.2142" fill="none" stroke="black" stroke-width="2"/>
<g stroke="black" stroke-width="2" fill="none">
<polygon points=" 317.179, 265.087 321.617, 265.087 321.617, 269.524 317.179, 269.524 317.179, 265.087 321.617, 269.524 317.179, 269.524 321.617, 265.087"/>
</g>
<path d="M354.831,269.448h 33.2142" fill="none" stroke="black" stroke-width="2"/>
<path d="M392.483,269.448h 33.2142" fill="none" stroke="black" stroke-width="2"/>
<g stroke="black" stroke-width="2" fill="none">
<polygon points=" 388.045, 267.229 392.483, 267.229 392.483, 271.667 388.045, 271.667 388.045, 267.229 392.483, 271.667 388.045, 271.667 392.483, 267.229"/>
</g>
<path d="M425.697,269.25h 33.2142" fill="none" stroke="black" stroke-width="2"/>
<path d="M463.349,269.25h 33.2142" fill="none" stroke="black" stroke-width="2"/>
<g stroke="black" stroke-width="2" fill="none">
<polygon points=" 458.911, 267.031 463.349, 267.031 463.349, 271.469 458.911, 271.469 458.911, 267.031 463.349, 271.469 458.911, 271.469 463.349, 267.031"/>
</g>
<path d="M71.3661,370.445h 425.197" fill="none" stroke="black"/>
<path d="M71.3661,361.184v 9.26114" fill="none" stroke="black"/>
<path d="M85.5394,365.815v 4.63057" fill="none" stroke="black"/>
<path d="M99.7126,365.815v 4.63057" fill="none" stroke="black"/>
<path d="M113.886,365.815v 4.63057" fill="none" stroke="black"/>
<path d="M128.059,365.815v 4.63057" fill="none" stroke="black"/>
<path d="M142.232,361.184v 9.26114" fill="none" stroke="black"/>
<path d="M156.406,365.815v 4.63057" fill="none" stroke="black"/>
<path d="M170.579,365.815v 4.63057" fill="none" stroke="black"/>
<path d="M184.752,365.815v 4.63057" fill="none" stroke="black"/>
<path d="M198.925,365.815v 4.63057" fill="none" stroke="black"/>
<path d="M213.098,361.184v 9.26114" fill="none" stroke="black"/>
<path d="M227.272,365.815v 4.63057" fill="none" stroke="black"/>
<path d="M241.445,365.815v 4.63057" fill="none" stroke="black"/>
<path d="M255.618,365.815v 4.63057" fill="none" stroke="black"/>
<path d="M269.791,365.815v 4.63057" fill="none" stroke="black"/>
<path d="M283.965,361.184v 9.26114" fill="none" stroke="black"/>
<path d="M298.138,365.815v 4.63057" fill="none" stroke="black"/>
<path d="M312.311,365.815v 4.63057" fill="none" stroke="black"/>
<path d="M326.484,365.815v 4.63057" fill="none" stroke="black"/>
<path d="M340.657,365.815v 4.63057" fill="none" stroke="black"/>
<path d="M354.831,361.184v 9.26114" fill="none" stroke="black"/>
<path d="M369.004,365.815v 4.63057" fill="none" stroke="black"/>
<path d="M383.177,365.815v 4.63057" fill="none" stroke="black"/>
<path d="M397.35,365.815v 4.63057" fill="none" stroke="black"/>
<path d="M411.524,365.815v 4.63057" fill="none" stroke="black"/>
<path d="M425.697,361.184v 9.26114" fill="none" stroke="black"/>
<path d="M439.87,365.815v 4.63057" fill="none" stroke="black"/>
<path d="M454.043,365.815v 4.63057" fill="none" stroke="black"/>
<path d="M468.217,365.815v 4.63057" fill="none" stroke="black"/>
<path d="M482.39,365.815v 4.63057" fill="none" stroke="black"/>
<path d="M496.563,361.184v 9.26114" fill="none" stroke="black"/>
<path d="M71.3661,361.184v 9.26114" fill="none" stroke="black"/>
<path d="M71.3661,41.1606h 425.197" fill="none" stroke="black"/>
<path d="M71.3661,50.4217v -9.26114" fill="none" stroke="black"/>
<path d="M85.5394,45.7912v -4.63057" fill="none" stroke="black"/>
<path d="M99.7126,45.7912v -4.63057" fill="none" stroke="black"/>
<path d="M113.886,45.7912v -4.63057" fill="none" stroke="black"/>
<path d="M128.059,45.7912v -4.63057" fill="none" stroke="black"/>
<path d="M142.232,50.4217v -9.26114" fill="none" stroke="black"/>
<path d="M156.406,45.7912v -4.63057" fill="none" stroke="black"/>
<path d="M170.579,45.7912v -4.63057" fill="none" stroke="black"/>
<path d="M184.752,45.7912v -4.63057" fill="none" stroke="black"/>
<path d="M198.925,45.7912v -4.63057" fill="none" stroke="black"/>
<path d="M213.098,50.4217v -9.26114" fill="none" stroke="black"/>
<path d="M227.272,45.7912v -4.63057" fill="none" stroke="black"/>
<path d="M241.445,45.7912v -4.63057" fill="none" stroke="black"/>
<path d="M255.618,45.7912v -4.63057" fill="none" stroke="black"/>
<path d="M269.791,45.7912v -4.63057" fill="none" stroke="black"/>
<path d="M283.965,50.4217v -9.26114" fill="none" stroke="black"/>
<path d="M298.138,45.7912v -4.63057" fill="none" stroke="black"/>
<path d="M312.311,45.7912v -4.63057" fill="none" stroke="black"/>
<path d="M326.484,45.7912v -4.63057" fill="none" stroke="black"/>
<path d="M340.657,45.7912v -4.63057" fill="none" stroke="black"/>
<path d="M354.831,50.4217v -9.26114" fill="none" stroke="black"/>
<path d="M369.004,45.7912v -4.63057" fill="none" stroke="black"/>
<path d="M383.177,45.7912v -4.63057" fill="none" stroke="black"/>
<path d="M397.35,45.7912v -4.63057" fill="none" stroke="black"/>
<path d="M411.524,45.7912v -4.63057" fill="none" stroke="black"/>
<path d="M425.697,50.4217v -9.26114" fill="none" stroke="black"/>
<path d="M439.87,45.7912v -4.63057" fill="none" stroke="black"/>
<path d="M454.043,45.7912v -4.63057" fill="none" stroke="black"/>
<path d="M468.217,45.7912v -4.63057" fill="none" stroke="black"/>
<path d="M482.39,45.7912v -4.63057" fill="none" stroke="black"/>
<path d="M496.563,50.4217v -9.26114" fill="none" stroke="black"/>
<path d="M71.3661,50.4217v -9.26114" fill="none" stroke="black"/>
<path d="M71.3661,370.445v -329.285" fill="none" stroke="black"/>
<path d="M84.9724,370.445h -13.6063" fill="none" stroke="black"/>
<path d="M78.1693,358.825h -6.80315" fill="none" stroke="black"/>
<path d="M78.1693,347.205h -6.80315" fill="none" stroke="black"/>
<path d="M78.1693,335.585h -6.80315" fill="none" stroke="black"/>
<path d="M84.9724,323.965h -13.6063" fill="none" stroke="black"/>
<path d="M78.1693,312.345h -6.80315" fill="none" stroke="black"/>
<path d="M78.1693,300.725h -6.80315" fill="none" stroke="black"/>
<path d="M78.1693,289.105h -6.80315" fill="none" stroke="black"/>
<path d="M84.9724,277.485h -13.6063" fill="none" stroke="black"/>
<path d="M78.1693,265.865h -6.80315" fill="none" stroke="black"/>
<path d="M78.1693,254.245h -6.80315" fill="none" stroke="black"/>
<path d="M78.1693,242.625h -6.80315" fill="none" stroke="black"/>
<path d="M84.9724,231.005h -13.6063" fill="none" stroke="black"/>
<path d="M78.1693,219.385h -6.80315" fill="none" stroke="black"/>
<path d="M78.1693,207.765h -6.80315" fill="none" stroke="black"/>
<path d="M78.1693,196.145h -6.80315" fill="none" stroke="black"/>
<path d="M84.9724,184.525h -13.6063" fill="none" stroke="black"/>
<path d="M78.1693,172.905h -6.80315" fill="none" stroke="black"/>
<path d="M78.1693,161.285h -6.80315" fill="none" stroke="black"/>
<path d="M78.1693,149.665h -6.80315" fill="none" stroke="black"/>
<path d="M84.9724,138.045h -13.6063" fill="none" stroke="black"/>
<path d="M78.1693,126.425h -6.80315" fill="none" stroke="black"/>
<path d="M78.1693,114.805h -6.80315" fill="none" stroke="black"/>
<path d="M78.1693,103.185h -6.80315" fill="none" stroke="black"/>
<path d="M84.9724,91.5652h -13.6063" fill="none" stroke="black"/>
<path d="M78.1693,79.9452h -6.80315" fill="none" stroke="black"/>
<path d="M78.1693,68.3252h -6.80315" fill="none" stroke="black"/>
<path d="M78.1693,56.7052h -6.80315" fill="none" stroke="black"/>
<path d="M84.9724,45.0851h -13.6063" fill="none" stroke="black"/>
<path d="M84.9724,45.0851h -13.6063" fill="none" stroke="black"/>
<path d="M496.563,370.445v -329.285" fill="none" stroke="black"/>
<path d="M482.957,370.445h 13.6063" fill="none" stroke="black"/>
<path d="M489.76,358.825h 6.80315" fill="none" stroke="black"/>
<path d="M489.76,347.205h 6.80315" fill="none" stroke="black"/>
<path d="M489.76,335.585h 6.80315" fill="none" stroke="black"/>
<path d="M482.957,323.965h 13.6063" fill="none" stroke="black"/>
<path d="M489.76,312.345h 6.80315" fill="none" stroke="black"/>
<path d="M489.76,300.725h 6.80315" fill="none" stroke="black"/>
<path d="M489.76,289.105h 6.80315" fill="none" stroke="black"/>
<path d="M482.957,277.485h 13.6063" fill="none" stroke="black"/>
<path d="M489.76,265.865h 6.80315" fill="none" stroke="black"/>
<path d="M489.76,254.245h 6.80315" fill="none" stroke="black"/>
<path d="M489.76,242.625h 6.80315" fill="none" stroke="black"/>
<path d="M482.957,231.005h 13.6063" fill="none" stroke="black"/>
<path d="M489.76,219.385h 6.80315" fill="none" stroke="black"/>
<path d="M489.76,207.765h 6.80315" fill="none" stroke="black"/>
<path d="M489.76,196.145h 6.80315" fill="none" stroke="black"/>
<path d="M482.957,184.525h 13.6063" fill="none" stroke="black"/>
<path d="M489.76,172.905h 6.80315" fill="none" stroke="black"/>
<path d="M489.76,161.285h 6.80315" fill="none" stroke="black"/>
<path d="M489.76,149.665h 6.80315" fill="none" stroke="black"/>
<path d="M482.957,138.045h 13.6063" fill="none" stroke="black"/>
<path d="M489.76,126.425h 6.80315" fill="none" stroke="black"/>
<path d="M489.76,114.805h 6.80315" fill="none" stroke="black"/>
<path d="M489.76,103.185h 6.80315" fill="none" stroke="black"/>
<path d="M482.957,91.5652h 13.6063" fill="none" stroke="black"/>
<path d="M489.76,79.9452h 6.80315" fill="none" stroke="black"/>
<path d="M489.76,68.3252h 6.80315" fill="none" stroke="black"/>
<path d="M489.76,56.7052h 6.80315" fill="none" stroke="black"/>
<path d="M482.957,45.0851h 13.6063" fill="none" stroke="black"/>
<path d="M482.957,45.0851h 13.6063" fill="none" stroke="black"/>
<rect x="142.232" y="275.776" width="90.7087" height="86.4373" fill="white"/>
<path d="M145.561,362.213v 2.2189h 89.5992v -85.3278h -2.2189v 83.1089z" fill="black"/>
<path d="M142.232,362.213v -86.4373h 90.7087v 86.4373h -90.7087z" fill="none" stroke="black"/>
<text xml:space="preserve" x="164.699" y="285.683" fill="black" font-size="9.41632" font-family="Times" font-weight="bold">hMR_Fe</text>
<path d="M145.634,282.979h 15.874" fill="none" stroke="#0000ff" stroke-width="2"/>
<g stroke="#0000ff" stroke-width="2" fill="none">
<polygon points=" 151.352, 280.76 155.79, 280.76 155.79, 285.198 151.352, 285.198 151.352, 280.76 155.79, 285.198 151.352, 285.198 155.79, 280.76"/>
</g>
<text xml:space="preserve" x="164.699" y="300.106" fill="black" font-size="9.41632" font-family="Times" font-weight="bold">hMR_Fe + AC</text>
<path d="M145.634,297.385h 15.874" fill="none" stroke="#0000ff" stroke-width="2"/>
<g stroke="#0000ff" stroke-width="2" fill="#0000ff">
<circle cx="153.571" cy="297.385" r="2.2189"/>
</g>
<text xml:space="preserve" x="164.699" y="314.529" fill="black" font-size="9.41632" font-family="Times" font-weight="bold">hMR_C</text>
<path d="M145.634,311.792h 15.874" fill="none" stroke="#ff0000" stroke-width="2"/>
<g stroke="#ff0000" stroke-width="2" fill="none">
<polygon points=" 151.352, 309.573 155.79, 309.573 155.79, 314.01 151.352, 314.01 151.352, 309.573 155.79, 314.01 151.352, 314.01 155.79, 309.573"/>
</g>
<text xml:space="preserve" x="164.699" y="328.952" fill="black" font-size="9.41632" font-family="Times" font-weight="bold">hMR_C + AC</text>
<path d="M145.634,326.198h 15.874" fill="none" stroke="#ff0000" stroke-width="2"/>
<g stroke="#ff0000" stroke-width="2" fill="#ff0000">
<circle cx="153.571" cy="326.198" r="2.2189"/>
</g>
<text xml:space="preserve" x="164.699" y="343.375" fill="black" font-size="9.41632" font-family="Times" font-weight="bold">hMR_Pb</text>
<path d="M145.634,340.604h 15.874" fill="none" stroke="black" stroke-width="2"/>
<g stroke="black" stroke-width="2" fill="none">
<polygon points=" 151.352, 338.385 155.79, 338.385 155.79, 342.823 151.352, 342.823 151.352, 338.385 155.79, 342.823 151.352, 342.823 155.79, 338.385"/>
</g>
<text xml:space="preserve" x="164.699" y="357.798" fill="black" font-size="9.41632" font-family="Times" font-weight="bold">hMR_Pb + AC</text>
<path d="M145.634,355.01h 15.874" fill="none" stroke="black" stroke-width="2"/>
<g stroke="black" stroke-width="2" fill="black">
<circle cx="153.571" cy="355.01" r="2.2189"/>
</g>
<rect x="6.16929" y="2.05803" width="160.56" height="22.6328" fill="white"/>
<text xml:space="preserve" x="20.4701" y="18.3059" fill="black" font-size="18.1494" font-family="Times" font-weight="bold">Multipicity Ratio</text></svg>
